HIERARCHY
ROOT joint_Root
{
	OFFSET 0.0 0.0 0.0
	CHANNELS 6 Xposition Yposition Zposition Zrotation Xrotation Yrotation 
	JOINT Hips
	{
		OFFSET 4.5925 91.4895 -427.239
		CHANNELS 6 Xposition Yposition Zposition Zrotation Xrotation Yrotation 
		JOINT Spine
		{
			OFFSET 15.7357 0.0 0.0
			CHANNELS 6 Xposition Yposition Zposition Zrotation Xrotation Yrotation 
			JOINT Chest
			{
				OFFSET 8.98455 -0.406207 0.0
				CHANNELS 6 Xposition Yposition Zposition Zrotation Xrotation Yrotation 
				JOINT Neck
				{
					OFFSET 16.3773 0.0 0.0
					CHANNELS 6 Xposition Yposition Zposition Zrotation Xrotation Yrotation 
					JOINT Head
					{
						OFFSET 6.45672 0.0 0.0
						CHANNELS 6 Xposition Yposition Zposition Zrotation Xrotation Yrotation 
						End Site
						{
							OFFSET 0.0 0.0 0.0
						}
					}
				}
				JOINT Shoulder_L
				{
					OFFSET 12.9942 -0.242716 4.98039
					CHANNELS 6 Xposition Yposition Zposition Zrotation Xrotation Yrotation 
					JOINT UpperArm_L
					{
						OFFSET 5.34809 0.0 0.0
						CHANNELS 6 Xposition Yposition Zposition Zrotation Xrotation Yrotation 
						JOINT LowerArm_L
						{
							OFFSET 24.3286 1.87007e-05 0.0
							CHANNELS 6 Xposition Yposition Zposition Zrotation Xrotation Yrotation 
							JOINT Hand_L
							{
								OFFSET 22.2916 0.0 0.0
								CHANNELS 6 Xposition Yposition Zposition Zrotation Xrotation Yrotation 
								End Site
								{
									OFFSET 0.0 0.0 0.0
								}
							}
						}
					}
				}
				JOINT Shoulder_R
				{
					OFFSET 12.9945 -0.242716 -4.98039
					CHANNELS 6 Xposition Yposition Zposition Zrotation Xrotation Yrotation 
					JOINT UpperArm_R
					{
						OFFSET -5.34813 0.0 0.0
						CHANNELS 6 Xposition Yposition Zposition Zrotation Xrotation Yrotation 
						JOINT LowerArm_R
						{
							OFFSET -24.3289 0.000322201 0.0
							CHANNELS 6 Xposition Yposition Zposition Zrotation Xrotation Yrotation 
							JOINT Hand_R
							{
								OFFSET -22.2915 -0.000108084 0.0
								CHANNELS 6 Xposition Yposition Zposition Zrotation Xrotation Yrotation 
								End Site
								{
									OFFSET 0.0 0.0 0.0
								}
							}
						}
					}
				}
			}
		}
		JOINT UpperLeg_L
		{
			OFFSET -2.19248 -6.46944 0.0
			CHANNELS 6 Xposition Yposition Zposition Zrotation Xrotation Yrotation 
			JOINT LowerLeg_L
			{
				OFFSET 39.0811 0.0 -1.23785e-05
				CHANNELS 6 Xposition Yposition Zposition Zrotation Xrotation Yrotation 
				JOINT Foot_L
				{
					OFFSET 40.9854 0.0 -1.26872e-05
					CHANNELS 6 Xposition Yposition Zposition Zrotation Xrotation Yrotation 
					JOINT Toes_L
					{
						OFFSET 11.7543 0.0 0.0
						CHANNELS 6 Xposition Yposition Zposition Zrotation Xrotation Yrotation 
						End Site
						{
							OFFSET 0.0 0.0 0.0
						}
					}
				}
			}
		}
		JOINT UpperLeg_R
		{
			OFFSET -2.19251 6.46944 0.0
			CHANNELS 6 Xposition Yposition Zposition Zrotation Xrotation Yrotation 
			JOINT LowerLeg_R
			{
				OFFSET -39.0811 -0.00228153 -0.0401928
				CHANNELS 6 Xposition Yposition Zposition Zrotation Xrotation Yrotation 
				JOINT Foot_R
				{
					OFFSET -40.9854 0.0 0.0
					CHANNELS 6 Xposition Yposition Zposition Zrotation Xrotation Yrotation 
					JOINT Toes_R
					{
						OFFSET -11.7543 0.0 0.0
						CHANNELS 6 Xposition Yposition Zposition Zrotation Xrotation Yrotation 
						End Site
						{
							OFFSET 0.0 0.0 0.0
						}
					}
				}
			}
		}
	}
}
MOTION
Frames:	5
Frame Time:	0.0333333
0.000000 0.000000 0.000000 0.000000 0.000000 -0.000000 6.363760 90.482400 1.968420 91.765200 -6.358480 11.944000 15.735700 0.000005 -0.000001 87.480800 81.744500 -89.009400 8.984550 -0.406207 -0.000000 8.721530 -0.734876 -2.998520 16.377300 -0.000001 -0.000001 12.393400 -1.944910 -2.416490 6.456720 -0.000001 -0.000000 0.355770 -1.526740 -1.232300 12.994200 -0.242716 4.980390 -92.045100 6.979170 -73.622800 5.348090 -0.000007 -0.000001 -64.571200 28.580600 -12.950700 24.328600 0.000019 0.000005 10.328200 25.966400 -22.598000 22.291600 -0.000001 0.000005 7.844580 5.292760 0.274737 12.994500 -0.242716 -4.980390 88.389200 10.896900 -81.539200 -5.348130 -0.000001 -0.000004 -62.293400 32.129500 -12.054800 -24.328900 0.000322 -0.000009 2.323600 7.282780 -17.756900 -22.291500 -0.000108 -0.000004 13.285900 5.402170 -3.008350 -2.192480 -6.469440 -0.000000 179.061000 -17.993900 4.509460 39.081100 -0.000007 -0.000012 -0.024721 0.045370 28.585000 40.985400 -0.000006 -0.000013 5.858940 4.815990 -72.190500 11.754300 -0.000000 0.000003 -0.000211 -0.001937 -16.650500 -2.192510 6.469440 -0.000001 165.729000 17.158600 -176.652000 -39.081100 -0.002282 -0.040193 -0.195811 0.343558 30.095200 -40.985400 0.000008 0.000006 -0.917590 16.639600 -70.069900 -11.754300 -0.000006 -0.000006 -0.002319 -0.032644 -17.900500
0.000000 0.000000 0.000000 0.000000 0.000000 -0.000000 6.398290 90.470600 2.016010 91.747900 -6.455530 11.941400 15.735700 0.000005 -0.000001 87.424800 81.737300 -88.957000 8.984550 -0.406207 -0.000000 8.734990 -0.751744 -3.004210 16.377300 -0.000001 -0.000001 12.967600 -1.958860 -2.505070 6.456720 -0.000001 -0.000000 0.975735 -1.608860 -1.255140 12.994200 -0.242716 4.980390 -92.078500 6.859060 -73.096600 5.348090 -0.000007 -0.000001 -64.192200 24.210400 -12.215000 24.328600 0.000019 0.000005 9.981170 25.921600 -21.929100 22.291600 -0.000001 0.000005 8.075250 5.284780 0.494894 12.994500 -0.242716 -4.980390 88.324900 10.752300 -81.091100 -5.348130 -0.000001 -0.000004 -61.282000 29.076000 -11.746600 -24.328900 0.000322 -0.000009 2.292970 7.280610 -17.542000 -22.291500 -0.000108 -0.000004 12.925300 5.398550 -2.890510 -2.192480 -6.469440 -0.000000 179.078000 -18.073800 4.529060 39.081100 -0.000007 -0.000012 -0.026175 0.047979 28.615000 40.985400 -0.000006 -0.000013 5.864250 4.767910 -72.244600 11.754300 -0.000000 0.000003 -0.000214 -0.001963 -16.651500 -2.192510 6.469440 -0.000001 165.708000 17.106300 -176.640000 -39.081100 -0.002282 -0.040193 -0.201790 0.354066 30.081700 -40.985400 0.000008 0.000006 -1.007780 16.738300 -70.055200 -11.754300 -0.000006 -0.000006 -0.002424 -0.033909 -17.952000
0.000000 0.000000 0.000000 0.000000 0.000000 -0.000000 6.422580 90.471900 2.071350 91.697700 -6.605210 11.970000 15.735700 0.000005 -0.000001 87.571100 81.761400 -89.093500 8.984550 -0.406207 -0.000000 8.689200 -0.707111 -2.988200 16.377300 -0.000001 -0.000001 13.641600 -1.968930 -2.603660 6.456720 -0.000001 -0.000000 1.647450 -1.675310 -1.286470 12.994200 -0.242716 4.980390 -92.083200 6.681630 -72.639200 5.348090 -0.000007 -0.000001 -62.978700 20.777200 -11.855300 24.328600 0.000019 0.000005 10.218800 26.918000 -21.712000 22.291600 -0.000001 0.000005 7.969510 5.276040 0.734394 12.994500 -0.242716 -4.980390 88.268500 10.577600 -80.648700 -5.348130 -0.000001 -0.000004 -59.691100 26.387200 -11.736400 -24.328900 0.000322 -0.000009 2.183150 6.931820 -17.537600 -22.291500 -0.000108 -0.000004 12.549600 5.401480 -2.985660 -2.192480 -6.469440 -0.000000 179.131000 -18.155200 4.634620 39.081100 -0.000007 -0.000012 -0.024182 0.044409 28.569600 40.985400 -0.000006 -0.000013 5.864460 4.698380 -72.276000 11.754300 -0.000000 0.000003 -0.000208 -0.001910 -16.649500 -2.192510 6.469440 -0.000001 165.736000 17.054800 -176.576000 -39.081100 -0.002282 -0.040193 -0.195465 0.343868 30.029600 -40.985400 0.000008 0.000006 -0.906337 16.823700 -70.079700 -11.754300 -0.000006 -0.000006 -0.002346 -0.032973 -17.913900
0.000000 0.000000 0.000000 0.000000 0.000000 -0.000000 6.454220 90.459200 2.103410 91.698700 -6.765260 11.974000 15.735700 0.000005 -0.000001 87.517300 81.787800 -89.049700 8.984550 -0.406207 -0.000000 8.635570 -0.719630 -3.007570 16.377300 -0.000001 -0.000001 14.342300 -1.923540 -2.735260 6.456720 -0.000001 -0.000000 2.329580 -1.658690 -1.332010 12.994200 -0.242716 4.980390 -92.087500 6.553290 -72.287400 5.348090 -0.000007 -0.000001 -60.879100 18.151400 -11.820900 24.328600 0.000019 0.000005 10.349200 27.475900 -21.594300 22.291600 -0.000001 0.000005 7.567930 5.278280 0.673162 12.994500 -0.242716 -4.980390 88.229700 10.401300 -80.285400 -5.348130 -0.000001 -0.000004 -57.475600 24.096200 -12.271400 -24.328900 0.000322 -0.000009 2.149680 6.762650 -17.688500 -22.291500 -0.000108 -0.000004 12.150800 5.400370 -2.949810 -2.192480 -6.469440 -0.000000 179.104000 -18.162400 4.644450 39.081100 -0.000007 -0.000012 -0.026974 0.049479 28.597500 40.985400 -0.000006 -0.000013 5.844570 4.559370 -72.315500 11.754300 -0.000000 0.000003 -0.000211 -0.001938 -16.650600 -2.192510 6.469440 -0.000001 165.693000 17.020500 -176.602000 -39.081100 -0.002282 -0.040193 -0.205044 0.360298 30.039300 -40.985400 0.000008 0.000006 -1.040710 16.965200 -70.031800 -11.754300 -0.000006 -0.000006 -0.002480 -0.034572 -17.979000
0.000000 0.000000 0.000000 0.000000 0.000000 -0.000000 6.474820 90.446400 2.146610 91.671100 -6.910130 12.122400 15.735700 0.000005 -0.000001 87.535500 81.784300 -89.074200 8.984550 -0.406207 -0.000000 8.642910 -0.714895 -3.020680 16.377300 -0.000001 -0.000001 15.139100 -1.903480 -2.827310 6.456720 -0.000001 -0.000000 3.073980 -1.614160 -1.411720 12.994200 -0.242716 4.980390 -92.057800 6.356910 -72.020800 5.348090 -0.000007 -0.000001 -58.348100 15.504900 -12.162300 24.328600 0.000019 0.000005 10.386300 28.080800 -21.274900 22.291600 -0.000001 0.000005 6.566270 5.278270 0.673362 12.994500 -0.242716 -4.980390 88.201100 10.156800 -79.901200 -5.348130 -0.000001 -0.000004 -55.084600 21.469500 -13.161500 -24.328900 0.000322 -0.000009 2.090460 6.565470 -17.713600 -22.291500 -0.000108 -0.000004 11.602500 5.403700 -3.058390 -2.192480 -6.469440 -0.000000 179.187000 -18.229900 4.816750 39.081100 -0.000007 -0.000012 -0.027046 0.049527 28.638800 40.985400 -0.000006 -0.000013 5.832860 4.493410 -72.371900 11.754300 -0.000000 0.000003 -0.000217 -0.001980 -16.652100 -2.192510 6.469440 -0.000001 165.667000 16.935600 -176.461000 -39.081100 -0.002282 -0.040193 -0.201541 0.353954 30.059400 -40.985400 0.000008 0.000006 -1.028440 17.061900 -70.058100 -11.754300 -0.000006 -0.000006 -0.002227 -0.031528 -17.855100
